PathFileType	4	(X/Y/Z)	pose_F01_0-96.trc
DataRate	CameraRate	NumFrames	NumMarkers	Units	OrigDataRate	OrigDataStartFrame	OrigNumFrames
30	30	8	21	m	30	24	96
Frame#	Time	CHip			RHip			RKnee			RAnkle			RBigToe			RSmallToe			RHeel			LHip			LKnee			LAnkle			LBigToe			LSmallToe			LHeel			Neck			Nose			RShoulder			RElbow			RWrist			LShoulder			LElbow			LWrist			
		X1	Y1	Z1	X2	Y2	Z2	X3	Y3	Z3	X4	Y4	Z4	X5	Y5	Z5	X6	Y6	Z6	X7	Y7	Z7	X8	Y8	Z8	X9	Y9	Z9	X10	Y10	Z10	X11	Y11	Z11	X12	Y12	Z12	X13	Y13	Z13	X14	Y14	Z14	X15	Y15	Z15	X16	Y16	Z16	X17	Y17	Z17	X18	Y18	Z18	X19	Y19	Z19	X20	Y20	Z20	X21	Y21	Z21	
24	0.8	-0.22433245450442402	1.8344769041262445	-0.45467467364713976	-0.23338948338876886	1.8314673707687847	-0.3896861189429139	-0.22412623993333816	1.7046985205621674	-0.3866798364719549	-0.21822808025014875	1.5811398314522922	-0.3785944032672717	-0.22659267255163043	1.6618969597063291	-0.3779899336703998	-0.22185050449105623	1.6668615101750466	-0.35587354616372224	-0.21530851218232216	1.572495030980018	-0.3899114746670483	-0.21623130256211742	1.8349001544198764	-0.5170499031476284	-0.2121072983398654	1.7054671973903486	-0.4958681097521734	-0.21226435017129708	1.5755260641011024	-0.4716031389450669	-0.24029251909265276	1.538934052677464	-0.44226367447459913	-0.2352158183342728	1.540338967909969	-0.4745307309453811	-0.20233524937026912	1.5661316715936795	-0.4675813343634058	-0.21238744636900647	1.9885588210250948	-0.49006026045000856	-0.22871996122314794	2.0558991508294104	-0.4834050881774292	-0.22360646795510786	1.985653085823771	-0.3980460260835928	-0.22749872585177558	1.9012962311141361	-0.34760884112683926	-0.24005987055338926	1.827001256028426	-0.31530384584705634	-0.19841144215598022	1.9915502359097217	-0.5896465846150345	-0.1970192954920535	1.9075202866075112	-0.6021658027934272	-0.21367587378971853	1.8300315383859682	-0.5921058344751198
25	0.8333333333333334	-0.22305030182970637	1.8368219732313127	-0.45184216239850566	-0.23216723150299476	1.835163330212379	-0.386970858791285	-0.22406155916554257	1.706977748182765	-0.3870136344089561	-0.2182367824126757	1.5812128114679218	-0.3785632947082352	-0.22659267255163043	1.6618969597063291	-0.3779899336703998	-0.22185050449105623	1.6668615101750466	-0.35587354616372224	-0.21507258220226308	1.5711506732297058	-0.39017550553554914	-0.21571222103110899	1.8386564992827459	-0.5175350537287806	-0.21123293039268787	1.7064614169936516	-0.4923780680085439	-0.2135191487507355	1.5743829243241831	-0.4743229920757897	-0.23841102692661223	1.5393020696168496	-0.44436691110840537	-0.2352611823960251	1.5406967855663418	-0.4745772607021564	-0.2033673192382021	1.5662707134592508	-0.47095859999825346	-0.21237624113520473	1.988555863661099	-0.48999646788811596	-0.2287342692715517	2.055908593542658	-0.4833073497610728	-0.22547987736856454	1.986897393593354	-0.3964005799670356	-0.22748193381724502	1.9012737796603163	-0.34757595506665767	-0.23920779757560515	1.825735816460186	-0.3117951057567844	-0.19844840378717052	1.990381558867051	-0.5895383216545945	-0.19615957636971654	1.9073993431027727	-0.5990083752474619	-0.20943571687409893	1.8299307954598967	-0.5879572686495569
26	0.8666666666666667	-0.22143438193105006	1.8345156840915309	-0.45346849441798637	-0.23057391101652425	1.8328078811682802	-0.3885856777196467	-0.2212608458925964	1.7048008165907338	-0.3854474586845632	-0.2182450799833573	1.581394649379207	-0.3785985615461837	-0.22659267255163043	1.6618969597063291	-0.3779899336703998	-0.22185050449105623	1.6668615101750466	-0.35587354616372224	-0.21453611765021974	1.5710229153030326	-0.3907249536463408	-0.21330152082912945	1.8349233610565392	-0.5158396016963388	-0.21138110559399767	1.7042795096539747	-0.49208437736974914	-0.21233114682052276	1.575754610795784	-0.47165285258648487	-0.2381269846724981	1.5405652425705791	-0.44494520814718724	-0.2330080114474928	1.542137571009205	-0.4772931697364013	-0.20344659409195537	1.5665690844032256	-0.4709075276079592	-0.2114378740577114	1.9884695415885099	-0.4868389185920218	-0.23053621937339971	2.0559314431225024	-0.48120063486111575	-0.22442905145163114	1.9854032974169502	-0.39269923568819615	-0.2265970290585303	1.9001512946069274	-0.34424149352727906	-0.23920249174964583	1.8255260435296485	-0.3117571019246233	-0.19746017337205118	1.991424811542129	-0.5863350296819908	-0.19317491594898897	1.9073520988756336	-0.598008295954827	-0.20469585843175195	1.8286621574468147	-0.5802927798525215
27	0.9	-0.22210402933503678	1.834022342804046	-0.4480675168434	-0.23105407928923236	1.8310469109035132	-0.38292314054735493	-0.22285473600096575	1.7058312943655618	-0.38363168537594156	-0.2182506221854192	1.5810933252895811	-0.37853380588870594	-0.22659267255163043	1.6618969597063291	-0.3779899336703998	-0.22185050449105623	1.6668615101750466	-0.35587354616372224	-0.21493999470854053	1.5702772485003194	-0.3901198376173375	-0.2137301106053705	1.8345602235657852	-0.5103279844055645	-0.21086295333585342	1.703588167493642	-0.49240319043201125	-0.2113307087386606	1.5757275570074234	-0.47702025920629876	-0.2381056566362898	1.5404415536824472	-0.44495747862840623	-0.23301527034403308	1.5420687675477767	-0.4772917249136749	-0.2013217945476169	1.5660435716257226	-0.47314578919371686	-0.2133219042769791	1.988383352271991	-0.48464676506525545	-0.22776282181036336	2.0558334931070092	-0.4802828566144865	-0.22443056272811013	1.9853706608167399	-0.39269716443012465	-0.2280859127439975	1.9006910643473327	-0.34186598178946903	-0.23918900805031953	1.8255826275392277	-0.3117312569405574	-0.1985731485684155	1.9912627412832034	-0.5810685860294859	-0.19398889812140482	1.9058484789969732	-0.5922533602296509	-0.20310464916062437	1.8282560425097638	-0.57707693332854
28	0.9333333333333333	-0.22028765471526762	1.835576213322696	-0.4504595296965952	-0.2311006799256772	1.8324781837282975	-0.383172912065992	-0.22311537287556502	1.7051096313756926	-0.38321941096542944	-0.2182193455416162	1.581057933256863	-0.3785792295470458	-0.22659267255163043	1.6618969597063291	-0.3779899336703998	-0.22185050449105623	1.6668615101750466	-0.35587354616372224	-0.21490681583990176	1.5702394337795365	-0.3901685189816398	-0.21204054472592268	1.8348072709036543	-0.5125347459141146	-0.21016142753348493	1.7051603894930876	-0.4890929475124303	-0.21204129972262484	1.5742283561321477	-0.4718689955194882	-0.24135968983602288	1.5386739169867594	-0.4455047309819435	-0.23527269935706782	1.5403720058042505	-0.47453943072902227	-0.2033613383283085	1.5664938148858554	-0.47092084666334466	-0.21140479280399174	1.988488437565547	-0.4866207393840549	-0.22962000475264968	2.0535686278522975	-0.47764901309906527	-0.22352989951323568	1.985541932365214	-0.38995204158450936	-0.22814631612860234	1.9022610874052335	-0.342228977458915	-0.23907987662017866	1.8283956873680287	-0.3121483674061549	-0.1976957187964346	1.9924809989315468	-0.5784052609063869	-0.19511760929243868	1.9059557433786625	-0.5953967889326646	-0.20231223322444278	1.8285766397764938	-0.5824517439098874
29	0.9666666666666667	-0.2221339822639568	1.8354927614474958	-0.4482568031617786	-0.22821302077088776	1.8324398929487555	-0.3820311528883781	-0.22000547450725128	1.7061099308991834	-0.3824181027786251	-0.21843661744579715	1.5798904561916747	-0.37805806799760994	-0.22659267255163043	1.6618969597063291	-0.3779899336703998	-0.22185050449105623	1.6668615101750466	-0.35587354616372224	-0.21502930681302204	1.5707423848283215	-0.39021563767057094	-0.2128912147281285	1.835871911450282	-0.5073818008561825	-0.21127023819867974	1.70661546660325	-0.49229158038085385	-0.21226671751565765	1.5755370311873045	-0.4716768127287141	-0.23850838801153046	1.539708307497126	-0.4443915720964218	-0.23530751770468417	1.540774351290116	-0.474590394050063	-0.20324355112053596	1.565830516731371	-0.4709677822355103	-0.21045660042815356	1.988386498926238	-0.48355275136301473	-0.2296388572133126	2.0548921937533096	-0.47810549107269473	-0.221619012491934	1.9843093373626932	-0.39156632648854245	-0.22623863287484436	1.900835514945188	-0.3440380178383533	-0.23714472811136872	1.8293183836955267	-0.314382852161214	-0.19769351310959885	1.9924505939964652	-0.5782052898719823	-0.19539315620002506	1.9075031692734699	-0.5958897277165458	-0.20598016284116608	1.8301709819979233	-0.5836456003308162
30	1.0	-0.22216201416798126	1.835460207972597	-0.4483199154977755	-0.2292548486028283	1.832525282766744	-0.3852675447501981	-0.22138576076223382	1.706459687147393	-0.3853811723365083	-0.21841266047776658	1.5811907988530152	-0.3782217650751324	-0.22659267255163043	1.6618969597063291	-0.3779899336703998	-0.22185050449105623	1.6668615101750466	-0.35587354616372224	-0.2149696703731738	1.5701766674017024	-0.3904492693396591	-0.21398389554876837	1.8346907209790706	-0.5103466536371608	-0.21027270218484131	1.7064677260965602	-0.4891627930224747	-0.21113849876631738	1.5744078706024238	-0.4772575221598342	-0.23813526947621008	1.5405902345924414	-0.4450429550989357	-0.2329527997180845	1.5416970152514096	-0.47736270698631206	-0.2011374570046967	1.5647792433195855	-0.4734492891782572	-0.21031830232801507	1.9894589021336184	-0.4835494909835965	-0.22963730773835084	2.0536406963191682	-0.47744097167165184	-0.2214727933504693	1.9853702909065531	-0.39164985620809944	-0.2241435501728522	1.9005702717776243	-0.3458237370491073	-0.23693437217531219	1.8266353892327911	-0.31403318735200225	-0.1968215026344618	1.9923685434190825	-0.5751772229464486	-0.1950493406823859	1.9083993668273274	-0.5957819582533157	-0.20547376290840044	1.8324607894183689	-0.5841318932452543
31	1.0333333333333334	-0.22040602052915115	1.8344501335902101	-0.4502369598416792	-0.22950622498457185	1.8327364589962867	-0.38538677553649503	-0.2212250895964551	1.7078494127553543	-0.3856563401265146	-0.218388703509736	1.5824911415143554	-0.3783854621526548	-0.22659267255163043	1.6618969597063291	-0.3779899336703998	-0.22185050449105623	1.6668615101750466	-0.35587354616372224	-0.212803382506918	1.5717742120363214	-0.3925330489054038	-0.2111919525953234	1.836037827411919	-0.5095176778987336	-0.21003832762510818	1.7076471782069855	-0.48946374129372855	-0.21219381992806116	1.5752517722923078	-0.47165080129916204	-0.23980184169599494	1.5362985130466993	-0.442570983120552	-0.23306571641074808	1.5396230806296514	-0.47670445233637737	-0.20339229603904238	1.5668370298257024	-0.47065207097917716	-0.21039483486683674	1.9884027078326447	-0.48354805919333127	-0.22866252362654074	2.0521219882623907	-0.4739506276202358	-0.22148316533616333	1.9853293125696911	-0.39161089852931835	-0.22621043379800343	1.90086475977688	-0.34410484791858	-0.23731019654079266	1.8283505284944015	-0.3143188937821123	-0.19677471215302217	1.9923627620866802	-0.5751809460816362	-0.19739567242102388	1.9086341275787508	-0.5936558434752759	-0.2078909452539944	1.8299523675077303	-0.581454696041164
